<svg width="1432" height="111" viewBox="0 0 1432 111" fill="none" xmlns="http://www.w3.org/2000/svg">
<path d="M24.2 110.21C17.666 110.21 12.6647 108.355 9.196 104.644C5.72733 100.933 3.993 95.69 3.993 88.914V44.386C3.993 37.61 5.72733 32.3667 9.196 28.656C12.6647 24.9453 17.666 23.09 24.2 23.09C30.734 23.09 35.7353 24.9453 39.204 28.656C42.6727 32.3667 44.407 37.61 44.407 44.386V88.914C44.407 95.69 42.6727 100.933 39.204 104.644C35.7353 108.355 30.734 110.21 24.2 110.21ZM24.2 98.11C28.798 98.11 31.097 95.327 31.097 89.761V43.539C31.097 37.973 28.798 35.19 24.2 35.19C19.602 35.19 17.303 37.973 17.303 43.539V89.761C17.303 95.327 19.602 98.11 24.2 98.11ZM96.9683 24.3H117.054C123.911 24.3 128.912 25.9133 132.058 29.14C135.204 32.286 136.777 37.1663 136.777 43.781V47.169C136.777 51.525 136.051 55.0743 134.599 57.817C133.228 60.5597 131.09 62.536 128.186 63.746V63.988C134.801 66.2467 138.108 72.1353 138.108 81.654V88.914C138.108 95.448 136.374 100.449 132.905 103.918C129.517 107.306 124.516 109 117.901 109H96.9683V24.3ZM115.481 58.785C118.143 58.785 120.12 58.0993 121.41 56.728C122.782 55.3567 123.467 53.0577 123.467 49.831V45.112C123.467 42.0467 122.903 39.8283 121.773 38.457C120.725 37.0857 119.031 36.4 116.691 36.4H110.278V58.785H115.481ZM117.901 96.9C120.241 96.9 121.975 96.295 123.104 95.085C124.234 93.7943 124.798 91.6163 124.798 88.551V81.17C124.798 77.298 124.113 74.636 122.741 73.184C121.451 71.6513 119.273 70.885 116.207 70.885H110.278V96.9H117.901ZM206.751 110.21C200.298 110.21 195.418 108.395 192.11 104.765C188.803 101.054 187.149 95.7707 187.149 88.914V84.074H199.733V89.882C199.733 95.3673 202.032 98.11 206.63 98.11C208.889 98.11 210.583 97.4647 211.712 96.174C212.922 94.8027 213.527 92.6247 213.527 89.64C213.527 86.0907 212.721 82.985 211.107 80.323C209.494 77.5803 206.509 74.3133 202.153 70.522C196.668 65.682 192.836 61.326 190.658 57.454C188.48 53.5013 187.391 49.0647 187.391 44.144C187.391 37.4487 189.085 32.286 192.473 28.656C195.861 24.9453 200.782 23.09 207.235 23.09C213.608 23.09 218.408 24.9453 221.634 28.656C224.942 32.286 226.595 37.5293 226.595 44.386V47.895H214.011V43.539C214.011 40.635 213.447 38.5377 212.317 37.247C211.188 35.8757 209.534 35.19 207.356 35.19C202.92 35.19 200.701 37.8923 200.701 43.297C200.701 46.3623 201.508 49.226 203.121 51.888C204.815 54.55 207.84 57.7767 212.196 61.568C217.762 66.408 221.594 70.8043 223.691 74.757C225.789 78.7097 226.837 83.348 226.837 88.672C226.837 95.6093 225.103 100.933 221.634 104.644C218.246 108.355 213.285 110.21 206.751 110.21ZM289.541 72.942L273.448 24.3H287.605L296.68 55.397H296.922L305.997 24.3H318.944L302.851 72.942V109H289.541V72.942ZM368.5 24.3H388.828C395.442 24.3 400.403 26.0747 403.711 29.624C407.018 33.1733 408.672 38.3763 408.672 45.233V88.067C408.672 94.9237 407.018 100.127 403.711 103.676C400.403 107.225 395.442 109 388.828 109H368.5V24.3ZM388.586 96.9C390.764 96.9 392.417 96.2547 393.547 94.964C394.757 93.6733 395.362 91.576 395.362 88.672V44.628C395.362 41.724 394.757 39.6267 393.547 38.336C392.417 37.0453 390.764 36.4 388.586 36.4H381.81V96.9H388.586ZM461.216 24.3H474.526V109H461.216V24.3ZM538.339 24.3H556.368L570.162 109H556.852L554.432 92.181V92.423H539.307L536.887 109H524.545L538.339 24.3ZM552.859 80.928L546.93 39.062H546.688L540.88 80.928H552.859ZM620.18 24.3H636.878L649.825 74.999H650.067V24.3H661.925V109H648.252L632.28 47.169H632.038V109H620.18V24.3Z" fill="#E2DED6"/>
<path d="M788.716 110.21C782.343 110.21 777.463 108.395 774.075 104.765C770.768 101.135 769.114 96.0127 769.114 89.398V43.902C769.114 37.2873 770.768 32.165 774.075 28.535C777.463 24.905 782.343 23.09 788.716 23.09C795.089 23.09 799.929 24.905 803.236 28.535C806.624 32.165 808.318 37.2873 808.318 43.902V52.856H795.734V43.055C795.734 37.8117 793.516 35.19 789.079 35.19C784.642 35.19 782.424 37.8117 782.424 43.055V90.366C782.424 95.5287 784.642 98.11 789.079 98.11C793.516 98.11 795.734 95.5287 795.734 90.366V77.419H808.318V89.398C808.318 96.0127 806.624 101.135 803.236 104.765C799.929 108.395 795.089 110.21 788.716 110.21ZM862.377 110.21C855.843 110.21 850.841 108.355 847.373 104.644C843.904 100.933 842.17 95.69 842.17 88.914V44.386C842.17 37.61 843.904 32.3667 847.373 28.656C850.841 24.9453 855.843 23.09 862.377 23.09C868.911 23.09 873.912 24.9453 877.381 28.656C880.849 32.3667 882.584 37.61 882.584 44.386V88.914C882.584 95.69 880.849 100.933 877.381 104.644C873.912 108.355 868.911 110.21 862.377 110.21ZM862.377 98.11C866.975 98.11 869.274 95.327 869.274 89.761V43.539C869.274 37.973 866.975 35.19 862.377 35.19C857.779 35.19 855.48 37.973 855.48 43.539V89.761C855.48 95.327 857.779 98.11 862.377 98.11ZM918.205 24.3H931.515V96.9H953.416V109H918.205V24.3ZM986.419 24.3H999.729V96.9H1021.63V109H986.419V24.3ZM1054.63 24.3H1090.93V36.4H1067.94V58.785H1086.21V70.885H1067.94V96.9H1090.93V109H1054.63V24.3ZM1143.96 110.21C1137.59 110.21 1132.71 108.395 1129.32 104.765C1126.02 101.135 1124.36 96.0127 1124.36 89.398V43.902C1124.36 37.2873 1126.02 32.165 1129.32 28.535C1132.71 24.905 1137.59 23.09 1143.96 23.09C1150.34 23.09 1155.18 24.905 1158.48 28.535C1161.87 32.165 1163.57 37.2873 1163.57 43.902V52.856H1150.98V43.055C1150.98 37.8117 1148.76 35.19 1144.33 35.19C1139.89 35.19 1137.67 37.8117 1137.67 43.055V90.366C1137.67 95.5287 1139.89 98.11 1144.33 98.11C1148.76 98.11 1150.98 95.5287 1150.98 90.366V77.419H1163.57V89.398C1163.57 96.0127 1161.87 101.135 1158.48 104.765C1155.18 108.395 1150.34 110.21 1143.96 110.21ZM1208.56 36.4H1194.64V24.3H1235.78V36.4H1221.87V109H1208.56V36.4ZM1268.84 24.3H1282.15V109H1268.84V24.3ZM1315.23 24.3H1328.67L1337.38 90.003H1337.62L1346.33 24.3H1358.55L1345.73 109H1328.06L1315.23 24.3ZM1391.57 24.3H1427.87V36.4H1404.88V58.785H1423.15V70.885H1404.88V96.9H1427.87V109H1391.57V24.3Z" fill="#E2DED6"/>
</svg>
